# Blender v2.79 (sub 0) OBJ File: ''
# www.blender.org
o Cube.003
v -0.728004 -0.218054 -0.056324
v -0.792159 -0.138843 -0.030962
v -0.792159 -0.138843 0.020797
v -0.728004 -0.218054 0.046160
v -0.800151 -0.280412 -0.056324
v -0.800151 -0.280412 0.046160
v -0.869238 -0.205464 0.020797
v -0.869238 -0.205464 -0.030962
v -0.735996 -0.359623 0.020797
v -0.658918 -0.293003 0.020797
v -0.658918 -0.293003 -0.030962
v -0.735998 -0.359623 -0.030962
v -0.543789 -0.462818 0.020797
v -0.543789 -0.462818 -0.030962
v -0.584642 -0.498126 -0.030962
v -0.584642 -0.498126 0.020797
v -0.551332 -0.536666 0.020797
v -0.510479 -0.501358 0.020797
v -0.510479 -0.501358 -0.030962
v -0.551332 -0.536666 -0.030962
v -0.979743 -0.890113 0.020797
v -0.979743 -0.890113 -0.030962
v -0.996398 -0.870844 -0.030962
v -0.996398 -0.870844 0.020797
v -0.858779 -0.061764 0.007858
v -0.935859 -0.128384 0.007858
v -0.935859 -0.128384 -0.018022
v -0.858779 -0.061764 -0.018022
vn 0.4911 0.4244 -0.7607
vn 0.4741 0.5603 -0.6792
vn 0.4741 0.5603 0.6792
vn 0.4911 0.4244 0.7607
vn -0.4911 -0.4244 -0.7607
vn -0.4911 -0.4244 0.7607
vn -0.6230 -0.3879 0.6792
vn -0.6230 -0.3879 -0.6792
vn -0.4941 -0.5729 0.6540
vn 0.6384 0.4060 0.6540
vn 0.6384 0.4060 -0.6540
vn -0.4941 -0.5729 -0.6540
vn 0.5503 0.4220 0.7205
vn 0.5503 0.4220 -0.7205
vn -0.4027 0.0011 -0.9153
vn -0.4027 0.0011 0.9153
vn 0.4579 -0.5422 0.7045
vn 0.8143 -0.0593 0.5773
vn 0.8143 -0.0593 -0.5773
vn 0.4579 -0.5422 -0.7045
vn -0.0685 -0.8128 0.5786
vn -0.0685 -0.8128 -0.5786
vn -0.8141 0.0499 -0.5786
vn -0.8141 0.0499 0.5786
vn 0.0439 0.8428 0.5365
vn -0.8402 0.0786 0.5365
vn -0.8402 0.0786 -0.5365
vn 0.0439 0.8428 -0.5365
s 1
f 1//1 2//2 3//3 4//4
f 5//5 6//6 7//7 8//8
f 1//1 5//5 8//8 2//2
f 3//3 7//7 6//6 4//4
f 4//4 6//6 9//9 10//10
f 5//5 1//1 11//11 12//12
f 6//6 5//5 12//12 9//9
f 1//1 4//4 10//10 11//11
f 11//11 10//10 13//13 14//14
f 9//9 12//12 15//15 16//16
f 12//12 11//11 14//14 15//15
f 10//10 9//9 16//16 13//13
f 13//13 16//16 17//17 18//18
f 15//15 14//14 19//19 20//20
f 14//14 13//13 18//18 19//19
f 20//20 19//19 18//18 17//17
f 20//20 17//17 21//21 22//22
f 15//15 20//20 22//22 23//23
f 17//17 16//16 24//24 21//21
f 16//16 15//15 23//23 24//24
f 24//24 23//23 22//22 21//21
f 7//7 3//3 25//25 26//26
f 2//2 8//8 27//27 28//28
f 8//8 7//7 26//26 27//27
f 3//3 2//2 28//28 25//25
f 28//28 27//27 26//26 25//25
o Cube.002
v -1.505633 -0.890167 0.046160
v -1.574720 -0.815220 0.020797
v -1.574720 -0.815220 -0.030962
v -1.505633 -0.890167 -0.056324
v -1.433486 -0.827810 0.046160
v -1.433486 -0.827810 -0.056324
v -1.497641 -0.748599 -0.030962
v -1.497641 -0.748598 0.020797
v -1.364399 -0.902757 -0.030962
v -1.441478 -0.969379 -0.030962
v -1.441478 -0.969379 0.020797
v -1.364399 -0.902757 0.020797
v -1.290124 -1.107882 -0.030962
v -1.290124 -1.107882 0.020797
v -1.249271 -1.072573 0.020797
v -1.249271 -1.072573 -0.030962
v -1.215961 -1.111112 -0.030962
v -1.256814 -1.146422 -0.030962
v -1.256814 -1.146422 0.020797
v -1.215961 -1.111112 0.020797
v -1.031590 -0.934926 -0.030962
v -1.031590 -0.934926 0.020797
v -1.048246 -0.915656 0.020797
v -1.048246 -0.915656 -0.030962
v -1.641341 -0.738140 -0.018023
v -1.564261 -0.671520 -0.018023
v -1.564261 -0.671518 0.007858
v -1.641341 -0.738140 0.007858
vn -0.4911 -0.4244 0.7607
vn -0.6230 -0.3879 0.6792
vn -0.6230 -0.3879 -0.6792
vn -0.4911 -0.4244 -0.7607
vn 0.4911 0.4244 0.7607
vn 0.4911 0.4244 -0.7607
vn 0.4741 0.5603 -0.6792
vn 0.4741 0.5603 0.6792
vn 0.6384 0.4060 -0.6540
vn -0.4941 -0.5729 -0.6540
vn -0.4941 -0.5729 0.6540
vn 0.6384 0.4060 0.6540
vn -0.4972 -0.4833 -0.7205
vn -0.4972 -0.4833 0.7205
vn 0.0637 0.4046 0.9123
vn 0.0637 0.4046 -0.9123
vn 0.4793 -0.5274 -0.7015
vn -0.0593 -0.8143 -0.5774
vn -0.0593 -0.8143 0.5774
vn 0.4793 -0.5274 0.7015
vn 0.8137 -0.0388 -0.5800
vn 0.8137 -0.0388 0.5800
vn 0.0794 0.8107 0.5800
vn 0.0794 0.8107 -0.5800
vn -0.8402 0.0786 -0.5365
vn 0.0439 0.8428 -0.5365
vn 0.0439 0.8428 0.5365
vn -0.8402 0.0786 0.5365
s 1
f 29//29 30//30 31//31 32//32
f 33//33 34//34 35//35 36//36
f 29//29 33//33 36//36 30//30
f 31//31 35//35 34//34 32//32
f 32//32 34//34 37//37 38//38
f 33//33 29//29 39//39 40//40
f 34//34 33//33 40//40 37//37
f 29//29 32//32 38//38 39//39
f 39//39 38//38 41//41 42//42
f 37//37 40//40 43//43 44//44
f 40//40 39//39 42//42 43//43
f 38//38 37//37 44//44 41//41
f 41//41 44//44 45//45 46//46
f 43//43 42//42 47//47 48//48
f 42//42 41//41 46//46 47//47
f 48//48 47//47 46//46 45//45
f 48//48 45//45 49//49 50//50
f 43//43 48//48 50//50 51//51
f 45//45 44//44 52//52 49//49
f 44//44 43//43 51//51 52//52
f 52//52 51//51 50//50 49//49
f 35//35 31//31 53//53 54//54
f 30//30 36//36 55//55 56//56
f 36//36 35//35 54//54 55//55
f 31//31 30//30 56//56 53//53
f 56//56 55//55 54//54 53//53
o Circle.003_Circle.007
v -0.810782 -0.254943 0.024598
v -0.329142 0.139349 0.024910
v -0.799901 -0.267532 0.015646
v -0.740831 -0.335875 -0.005965
v -0.329142 0.139349 -0.036840
v -0.257240 0.056158 -0.005965
v -0.810782 -0.254943 -0.036530
v -0.799901 -0.267532 -0.027578
v -0.350906 0.164529 -0.036840
v -0.340024 0.151938 -0.049628
v -0.821664 -0.242352 -0.027578
v -0.389990 0.209749 -0.005965
v -0.821664 -0.242352 0.015646
v -0.860748 -0.197132 -0.005965
v -0.350906 0.164529 0.024910
v -0.340024 0.151940 0.037698
v -0.192342 0.301577 0.024910
v -0.237473 0.353793 -0.005965
v -0.192342 0.301578 -0.036840
v -0.181460 0.288987 -0.049628
v -0.170578 0.276397 -0.036840
v -0.041792 0.127390 -0.005965
v -0.170578 0.276397 0.024910
v -0.181460 0.288987 0.037698
v -0.051656 0.379184 0.024910
v -0.051656 0.379184 -0.036840
v 0.133092 0.165430 -0.005965
v -0.073420 0.404363 -0.036840
v -0.062538 0.391773 -0.049628
v -0.073420 0.404363 0.024910
v -0.127010 0.466367 -0.005965
v 0.294231 0.700131 0.037698
v 0.283349 0.712722 0.024910
v 0.207071 0.800974 -0.005965
v 0.283349 0.712722 -0.036840
v 0.294231 0.700131 -0.049628
v 0.305113 0.687542 -0.036840
v 0.489861 0.473789 -0.005965
v 0.305113 0.687542 0.024910
v 0.532076 0.905704 0.037698
v 0.542958 0.893114 0.024910
v 0.718790 0.689677 -0.005965
v 0.542958 0.893114 -0.036840
v 0.521193 0.918294 -0.036840
v 0.532076 0.905704 -0.049628
v 0.521193 0.918294 0.024910
v 0.403923 1.053976 -0.005965
v 0.719398 1.089604 0.024910
v 0.542169 1.294658 -0.005965
v 0.719398 1.089604 -0.036840
v 0.730280 1.077015 -0.049628
v 0.741162 1.064424 -0.036840
v 0.905850 0.873881 -0.005965
v 0.741162 1.064424 0.024910
v 0.730280 1.077015 0.037698
v 0.939367 1.235734 0.024910
v 1.086115 1.065947 -0.005965
v 0.939367 1.235734 -0.036840
v 0.917603 1.260915 -0.036840
v 0.928485 1.248324 -0.049628
v 0.784963 1.414377 -0.005965
v 0.917603 1.260915 0.024910
v 0.928485 1.248324 0.037698
v 1.195089 1.500749 0.024910
v 1.097941 1.613149 -0.005965
v 1.195089 1.500749 -0.036840
v 1.205971 1.488159 -0.049628
v 1.216853 1.475568 -0.036840
v 1.329948 1.344719 -0.005965
v 1.216853 1.475568 0.024910
v 1.205971 1.488159 0.037698
v 1.454698 1.681141 0.024910
v 1.523501 1.601537 -0.005965
v 1.454698 1.681141 -0.036840
v 1.432935 1.706321 -0.036840
v 1.443817 1.693732 -0.049628
v 1.368920 1.780386 -0.005965
v 1.432935 1.706321 0.024910
v 1.739536 1.992597 0.037698
v 1.735182 1.997634 0.024910
v 1.700075 2.038253 -0.005965
v 1.735182 1.997634 -0.036839
v 1.739536 1.992597 -0.049628
v 1.743888 1.987561 -0.036839
v 1.771409 1.955719 -0.005965
v 1.743888 1.987561 0.024910
v 1.443817 1.693732 0.037698
v 1.771037 2.078297 -0.005965
v -0.062538 0.391773 0.037698
vn -0.6539 0.7566 -0.0000
vn -0.5805 0.6871 0.4368
vn -0.6038 0.7007 0.3801
vn 0.6088 -0.7933 0.0000
vn -0.6091 0.6961 0.3800
vn 0.2872 -0.3423 -0.8946
vn 0.5892 -0.8080 0.0000
vn -0.0113 -0.0098 -0.9999
vn 0.2221 -0.2783 -0.9345
vn -0.3560 0.4005 -0.8443
vn -0.0079 -0.0069 -0.9999
vn -0.2746 0.3070 -0.9113
vn -0.6674 0.7447 0.0000
vn -0.2746 0.3069 0.9113
vn -0.3560 0.4005 0.8443
vn -0.3394 0.3871 0.8573
vn -0.6790 0.7341 0.0000
vn -0.3393 0.3871 -0.8573
vn 0.0000 0.0000 -1.0000
vn 0.2549 -0.3123 -0.9151
vn 0.3575 -0.9339 -0.0000
vn -0.6328 0.6619 0.4017
vn -0.6330 0.6618 0.4017
vn -0.6231 0.6844 0.3786
vn -0.6232 0.6843 0.3786
vn 0.2429 -0.2910 -0.9254
vn 0.4752 -0.8799 0.0000
vn -0.3244 0.3673 -0.8717
vn -0.3244 0.3673 0.8717
vn -0.6869 0.7267 0.0000
vn -0.2935 0.3331 0.8961
vn -0.6980 0.7161 0.0000
vn -0.2935 0.3331 -0.8961
vn 0.2447 -0.2821 -0.9277
vn 0.6699 -0.7424 0.0000
vn -0.6048 0.7034 0.3734
vn -0.6540 0.7565 0.0000
vn -0.6032 0.7033 0.3762
vn 0.6850 -0.7286 -0.0000
vn 0.2467 -0.2840 -0.9265
vn -0.2705 0.3028 -0.9139
vn -0.2705 0.3028 0.9139
vn -0.7693 0.6389 0.0000
vn -0.2524 0.2891 0.9234
vn -0.6800 0.7332 0.0000
vn -0.2524 0.2891 -0.9234
vn 0.2501 -0.2866 -0.9248
vn 0.7031 -0.7111 0.0000
vn -0.5997 0.7040 0.3804
vn -0.5923 0.7061 0.3882
vn 0.7204 -0.6936 0.0000
vn -0.5923 0.7060 0.3882
vn 0.2566 -0.2915 -0.9215
vn -0.2553 0.3020 -0.9185
vn -0.5516 0.8341 0.0000
vn -0.2553 0.3020 0.9185
vn -0.2705 0.3233 0.9068
vn -0.5787 0.8155 -0.0000
vn -0.2705 0.3233 -0.9068
vn 0.2735 -0.3047 -0.9123
vn 0.7404 -0.6722 0.0000
vn -0.5720 0.7111 0.4088
vn -0.5109 0.6250 0.5902
vn 0.7530 -0.6580 0.0000
vn -0.5108 0.6251 0.5902
vn 0.3226 -0.3215 -0.8903
vn -0.3174 0.3421 -0.8844
vn 0.0158 -0.0091 -0.9998
vn -0.6566 0.7542 0.0000
vn -0.3174 0.3421 0.8844
vn -0.8281 0.5605 -0.0078
vn -0.5396 0.5163 0.6650
vn -0.5584 0.8295 0.0000
vn -0.5396 0.5163 -0.6650
vn 0.2241 0.1319 -0.9656
vn 0.7309 -0.3008 -0.6126
vn 0.9041 -0.4274 -0.0000
vn -0.3808 0.4858 0.7867
vn -0.6872 0.7261 -0.0229
vn -0.3808 0.4858 0.7868
vn 0.1302 0.9819 -0.1379
vn 0.1302 0.9819 -0.1378
s 1
f 57//57 58//58 59//59
f 60//60 58//58 59//61
f 60//60 61//62 62//63
f 63//64 61//62 64//65
f 63//64 65//66 66//67
f 67//68 68//69 65//66
f 69//70 68//69 70//57
f 57//57 71//71 69//70
f 72//57 73//72 71//71
f 68//69 73//72 74//73
f 68//69 75//74 65//66
f 65//66 76//75 66//67
f 61//62 76//75 77//76
f 62//63 77//76 78//77
f 62//63 79//78 58//58
f 72//57 79//79 58//58
f 80//57 81//80 79//79
f 78//77 81//81 79//78
f 78//77 82//82 83//83
f 76//75 82//82 77//76
f 76//75 84//84 85//75
f 74//73 84//84 75//74
f 74//73 86//85 87//86
f 80//57 86//85 73//72
f 86//85 88//57 89//87
f 87//86 89//87 90//88
f 87//86 91//89 84//84
f 85//75 91//89 92//75
f 82//82 92//75 93//90
f 82//82 94//91 83//83
f 81//81 94//91 95//92
f 81//80 88//93 95//92
f 95//92 96//57 97//94
f 95//92 98//95 97//94
f 93//90 98//95 94//91
f 92//75 99//96 93//90
f 92//75 100//97 101//75
f 90//88 100//97 91//89
f 90//88 102//98 103//99
f 89//87 96//57 102//98
f 96//57 104//100 102//98
f 103//99 104//100 105//101
f 103//99 106//102 100//97
f 101//75 106//102 107//75
f 101//75 108//103 99//96
f 99//96 109//104 98//95
f 97//94 109//104 110//105
f 96//57 110//105 97//94
f 111//57 112//106 110//105
f 110//105 113//107 112//108
f 108//103 113//107 109//104
f 107//75 114//109 108//103
f 107//75 115//110 116//75
f 106//102 117//111 115//110
f 104//100 117//111 105//101
f 111//57 118//112 104//100
f 119//57 120//113 118//112
f 118//112 121//114 117//111
f 115//110 121//114 122//115
f 116//75 122//115 123//75
f 116//75 124//116 114//109
f 114//109 125//117 113//107
f 112//108 125//117 126//118
f 119//57 126//118 112//106
f 127//57 128//119 126//118
f 126//118 129//120 128//121
f 124//116 129//120 125//117
f 123//75 130//122 124//116
f 123//75 131//123 132//124
f 122//115 133//125 131//123
f 120//113 133//125 121//114
f 127//57 134//126 120//113
f 134//126 135//127 136//128
f 133//125 136//128 137//129
f 133//125 138//130 131//123
f 131//123 139//131 132//124
f 132//124 140//132 130//122
f 130//122 141//133 129//120
f 128//121 141//133 142//134
f 143//135 142//136 128//119
f 142//136 135//127 144//137
f 142//134 141//133 144//138
f 141//133 140//132 144//138
f 140//132 139//131 144//138
f 139//131 138//130 144//138
f 138//130 137//129 144//138
f 137//129 136//128 144//138
f 136//128 135//127 144//138
f 57//57 72//57 58//58
f 60//60 62//63 58//58
f 60//60 64//65 61//62
f 63//64 66//67 61//62
f 63//64 67//68 65//66
f 67//68 70//57 68//69
f 69//70 71//71 68//69
f 57//57 72//57 71//71
f 72//57 80//57 73//72
f 68//69 71//71 73//72
f 68//69 74//73 75//74
f 65//66 75//74 76//75
f 61//62 66//67 76//75
f 62//63 61//62 77//76
f 62//63 78//77 79//78
f 72//57 80//57 79//79
f 80//57 145//57 81//80
f 78//77 83//83 81//81
f 78//77 77//76 82//82
f 76//75 85//75 82//82
f 76//75 75//74 84//84
f 74//73 87//86 84//84
f 74//73 73//72 86//85
f 80//57 145//93 86//85
f 86//85 145//93 88//57
f 87//86 86//85 89//87
f 87//86 90//88 91//89
f 85//75 84//84 91//89
f 82//82 85//75 92//75
f 82//82 93//90 94//91
f 81//81 83//83 94//91
f 81//80 145//57 88//93
f 95//92 88//93 96//57
f 95//92 94//91 98//95
f 93//90 99//96 98//95
f 92//75 101//75 99//96
f 92//75 91//89 100//97
f 90//88 103//99 100//97
f 90//88 89//87 102//98
f 89//87 88//57 96//57
f 96//57 111//57 104//100
f 103//99 102//98 104//100
f 103//99 105//101 106//102
f 101//75 100//97 106//102
f 101//75 107//75 108//103
f 99//96 108//103 109//104
f 97//94 98//95 109//104
f 96//57 111//57 110//105
f 111//57 119//57 112//106
f 110//105 109//104 113//107
f 108//103 114//109 113//107
f 107//75 116//75 114//109
f 107//75 106//102 115//110
f 106//102 105//101 117//111
f 104//100 118//112 117//111
f 111//57 119//57 118//112
f 119//57 127//57 120//113
f 118//112 120//113 121//114
f 115//110 117//111 121//114
f 116//75 115//110 122//115
f 116//75 123//75 124//116
f 114//109 124//116 125//117
f 112//108 113//107 125//117
f 119//57 127//57 126//118
f 127//57 143//135 128//119
f 126//118 125//117 129//120
f 124//116 130//122 129//120
f 123//75 132//124 130//122
f 123//75 122//115 131//123
f 122//115 121//114 133//125
f 120//113 134//126 133//125
f 127//57 143//135 134//126
f 134//126 143//135 135//127
f 133//125 134//126 136//128
f 133//125 137//129 138//130
f 131//123 138//130 139//131
f 132//124 139//131 140//132
f 130//122 140//132 141//133
f 128//121 129//120 141//133
f 143//135 135//127 142//136
o Circle
v -1.163878 -0.701615 -0.041929
v -1.147179 -0.720937 -0.006846
v -1.037346 -0.626007 -0.006846
v -1.054046 -0.606685 -0.041929
v -1.206163 -0.652691 -0.060596
v -1.096331 -0.557763 -0.060596
v -1.254248 -0.597058 -0.054112
v -1.144415 -0.502130 -0.054112
v -1.285632 -0.560747 -0.025513
v -1.175800 -0.465817 -0.025513
v -1.285632 -0.560747 0.011821
v -1.175800 -0.465817 0.011821
v -1.254248 -0.597058 0.040420
v -1.144415 -0.502130 0.040420
v -1.206163 -0.652691 0.046903
v -1.096331 -0.557763 0.046903
v -1.163878 -0.701615 0.028236
v -1.054046 -0.606685 0.028236
v -0.937777 -0.519203 -0.006846
v -0.952075 -0.502660 0.023191
v -0.988281 -0.460771 0.039175
v -1.029451 -0.413137 0.033624
v -1.056324 -0.382046 0.009137
v -1.056324 -0.382046 -0.022829
v -1.029451 -0.413137 -0.047316
v -0.988281 -0.460771 -0.052868
v -0.952076 -0.502660 -0.036885
v -0.712314 -0.286876 -0.006846
v -0.722277 -0.275350 -0.027777
v -0.747504 -0.246162 -0.038913
v -0.776191 -0.212970 -0.035045
v -0.794915 -0.191307 -0.017983
v -0.794915 -0.191307 0.004291
v -0.776191 -0.212970 0.021353
v -0.747504 -0.246162 0.025221
v -0.722277 -0.275350 0.014084
v -1.279179 -0.790218 -0.038421
v -1.264149 -0.807607 -0.006846
v -1.317235 -0.746187 -0.055221
v -1.360512 -0.696117 -0.049386
v -1.388758 -0.663437 -0.023647
v -1.388758 -0.663437 0.009954
v -1.360512 -0.696117 0.035693
v -1.317235 -0.746187 0.041528
v -1.279179 -0.790218 0.024728
v -1.403479 -0.868407 0.015445
v -1.392868 -0.880684 -0.006846
v -1.430348 -0.837322 0.027306
v -1.460900 -0.801972 0.023187
v -1.480842 -0.778900 0.005015
v -1.480842 -0.778900 -0.018707
v -1.460900 -0.801972 -0.036880
v -1.430348 -0.837322 -0.040998
v -1.403480 -0.868407 -0.029137
vn -0.5322 0.6434 -0.5502
vn 0.0000 0.0000 1.0000
vn -0.5703 0.6189 -0.5401
vn 0.0490 -0.0858 -0.9951
vn 0.0842 -0.0556 -0.9949
vn -0.2183 0.2201 -0.9507
vn -0.1796 0.2544 -0.9503
vn -0.5948 0.6368 -0.4906
vn -0.5332 0.6903 -0.4891
vn -0.5948 0.6368 0.4906
vn -0.5332 0.6903 0.4891
vn -0.2183 0.2201 0.9507
vn -0.1796 0.2544 0.9503
vn 0.0490 -0.0858 0.9951
vn 0.0842 -0.0556 0.9949
vn 0.3570 -0.4534 0.8167
vn 0.4062 -0.4121 0.8156
vn 0.4257 -0.3875 0.8177
vn 0.1004 -0.0403 0.9941
vn -0.1586 0.2681 0.9502
vn -0.4991 0.7123 0.4935
vn -0.4991 0.7123 -0.4935
vn -0.1586 0.2681 -0.9502
vn 0.1004 -0.0403 -0.9941
vn -0.5630 0.5869 -0.5819
vn -0.5630 0.5868 -0.5820
vn -0.5341 0.5650 -0.6289
vn 0.0958 -0.0428 -0.9945
vn -0.5340 0.5650 -0.6289
vn -0.1607 0.2617 -0.9517
vn -0.5043 0.7038 -0.5003
vn -0.5043 0.7038 0.5003
vn -0.1607 0.2617 0.9517
vn 0.0958 -0.0428 0.9945
vn 0.4166 -0.3882 0.8220
vn -0.4976 0.6801 -0.5384
vn -0.4976 0.6800 -0.5384
vn 0.0112 -0.1185 -0.9929
vn -0.2606 0.1836 -0.9478
vn -0.6571 0.5758 -0.4865
vn -0.6571 0.5758 0.4865
vn -0.2606 0.1836 0.9478
vn 0.0112 -0.1185 0.9929
vn 0.3039 -0.4977 0.8124
vn 0.2582 -0.5080 0.8217
vn -0.0150 -0.1359 0.9906
vn -0.2779 0.1515 0.9486
vn -0.6855 0.5251 0.5044
vn -0.6855 0.5251 -0.5044
vn -0.2779 0.1515 -0.9486
vn -0.0150 -0.1359 -0.9906
vn -0.4196 0.5846 -0.6944
s 1
f 146//139 147//140 148//140 149//141
f 146//139 150//142 151//143 149//141
f 150//142 152//144 153//145 151//143
f 152//144 154//146 155//147 153//145
f 154//146 156//148 157//149 155//147
f 156//148 158//150 159//151 157//149
f 158//150 160//152 161//153 159//151
f 160//152 162//154 163//155 161//153
f 162//154 147//140 148//140 163//155
f 163//155 148//140 164//140 165//156
f 161//153 163//155 165//156 166//157
f 159//151 161//153 166//157 167//158
f 157//149 159//151 167//158 168//159
f 155//147 157//149 168//159 169//160
f 153//145 155//147 169//160 170//161
f 151//143 153//145 170//161 171//162
f 149//141 151//143 171//162 172//163
f 149//141 148//140 164//140 172//164
f 172//164 164//140 173//140 174//165
f 172//163 171//162 175//166 174//167
f 171//162 170//161 176//168 175//166
f 170//161 169//160 177//169 176//168
f 169//160 168//159 178//170 177//169
f 168//159 167//158 179//171 178//170
f 167//158 166//157 180//172 179//171
f 166//157 165//156 181//173 180//172
f 165//156 164//140 173//140 181//173
f 147//140 146//139 182//174 183//140
f 150//142 146//139 182//175 184//176
f 152//144 150//142 184//176 185//177
f 154//146 152//144 185//177 186//178
f 156//148 154//146 186//178 187//179
f 158//150 156//148 187//179 188//180
f 160//152 158//150 188//180 189//181
f 162//154 160//152 189//181 190//182
f 147//140 162//154 190//182 183//140
f 183//140 190//182 191//183 192//140
f 190//182 189//181 193//184 191//183
f 189//181 188//180 194//185 193//184
f 188//180 187//179 195//186 194//185
f 187//179 186//178 196//187 195//186
f 186//178 185//177 197//188 196//187
f 185//177 184//176 198//189 197//188
f 184//176 182//175 199//190 198//189
f 183//140 182//174 199//190 192//140
