# Blender v2.79 (sub 0) OBJ File: 'untitled.blend'
# www.blender.org
o Circle.003_Circle.007
v -0.427439 -0.180744 0.020301
v -0.436420 -0.170353 0.012913
v -0.468676 -0.133033 -0.004923
v -0.436420 -0.170353 -0.022760
v -0.427439 -0.180744 -0.030148
v -0.418459 -0.191134 -0.022760
v -0.369708 -0.247538 -0.004923
v -0.418459 -0.191134 0.012913
v -0.029940 0.144666 0.020558
v 0.029401 0.076008 -0.004923
v -0.029940 0.144666 -0.030404
v -0.038921 0.155056 -0.040958
v -0.047902 0.165447 -0.030404
v -0.080158 0.202767 -0.004923
v -0.047902 0.165447 0.020558
v -0.038921 0.155057 0.031112
v 0.091942 0.268163 0.031112
v 0.082961 0.278553 0.020558
v 0.045715 0.321647 -0.004923
v 0.082961 0.278554 -0.030404
v 0.091942 0.268163 -0.040958
v 0.100923 0.257772 -0.030404
v 0.207211 0.134796 -0.004923
v 0.100923 0.257772 0.020558
v 0.199070 0.342602 0.020558
v 0.351543 0.166191 -0.004923
v 0.199070 0.342602 -0.030404
v 0.190089 0.352992 -0.040958
v 0.181108 0.363383 -0.030404
v 0.136880 0.414555 -0.004923
v 0.181108 0.363383 0.020558
v 0.190089 0.352992 0.031112
v 0.484531 0.607481 0.031112
v 0.475550 0.617872 0.020558
v 0.412598 0.690707 -0.004923
v 0.475550 0.617872 -0.030404
v 0.484531 0.607481 -0.040958
v 0.493512 0.597091 -0.030404
v 0.645985 0.420680 -0.004923
v 0.493512 0.597091 0.020558
v 0.689806 0.766750 0.020558
v 0.834921 0.598853 -0.004923
v 0.689806 0.766750 -0.030404
v 0.680825 0.777141 -0.040958
v 0.671844 0.787531 -0.030404
v 0.575060 0.899510 -0.004923
v 0.671844 0.787531 0.020558
v 0.680825 0.777141 0.031112
v 0.844404 0.918524 0.031112
v 0.835423 0.928914 0.020558
v 0.689155 1.098145 -0.004923
v 0.835423 0.928914 -0.030404
v 0.844404 0.918524 -0.040958
v 0.853385 0.908133 -0.030404
v 0.989302 0.750877 -0.004923
v 0.853385 0.908133 0.020558
v 1.016964 1.049515 0.020558
v 1.138075 0.909390 -0.004923
v 1.016964 1.049515 -0.030404
v 1.007983 1.059906 -0.040958
v 0.999002 1.070297 -0.030404
v 0.889534 1.196950 -0.004923
v 0.999002 1.070297 0.020558
v 1.007983 1.059906 0.031112
v 1.236993 1.257842 0.031112
v 1.228012 1.268233 0.020558
v 1.147835 1.360997 -0.004923
v 1.228012 1.268233 -0.030404
v 1.236993 1.257842 -0.040958
v 1.245974 1.247451 -0.030404
v 1.339311 1.139461 -0.004923
v 1.245974 1.247451 0.020558
v 1.442268 1.417111 0.020558
v 1.499051 1.351413 -0.004923
v 1.442268 1.417111 -0.030404
v 1.433288 1.427502 -0.040958
v 1.424307 1.437892 -0.030404
v 1.371475 1.499018 -0.004923
v 1.424307 1.437892 0.020558
v 1.433288 1.427502 0.031112
v 1.677345 1.674156 0.031112
v 1.673752 1.678313 0.020558
v 1.644778 1.711836 -0.004923
v 1.673752 1.678313 -0.030404
v 1.677345 1.674156 -0.040958
v 1.680937 1.670000 -0.030404
v 1.703650 1.643721 -0.004923
v 1.680937 1.670000 0.020558
v 1.703343 1.744885 -0.004923
vn -0.6539 0.7566 0.0000
vn -0.5805 0.6871 0.4368
vn -0.6091 0.6961 0.3800
vn 0.6088 -0.7933 0.0000
vn 0.2872 -0.3423 -0.8946
vn 0.5892 -0.8079 0.0000
vn -0.0113 -0.0098 -0.9999
vn 0.2221 -0.2782 -0.9345
vn -0.3560 0.4004 -0.8443
vn -0.0079 -0.0068 -0.9999
vn -0.2745 0.3070 -0.9113
vn -0.6674 0.7447 0.0000
vn -0.2745 0.3070 0.9113
vn -0.3560 0.4004 0.8443
vn -0.3393 0.3870 0.8573
vn -0.6790 0.7341 0.0000
vn -0.3393 0.3870 -0.8573
vn 0.0000 0.0000 -1.0000
vn 0.2549 -0.3123 -0.9151
vn 0.3575 -0.9339 0.0000
vn -0.6329 0.6618 0.4017
vn -0.6231 0.6844 0.3786
vn 0.2429 -0.2910 -0.9254
vn 0.4752 -0.8798 0.0000
vn -0.3244 0.3673 -0.8717
vn -0.3244 0.3673 0.8717
vn -0.6869 0.7267 0.0000
vn -0.2935 0.3330 0.8961
vn -0.6980 0.7161 0.0000
vn -0.2935 0.3330 -0.8961
vn 0.2447 -0.2821 -0.9277
vn 0.6699 -0.7424 0.0000
vn -0.6048 0.7034 0.3734
vn -0.6032 0.7033 0.3762
vn 0.6850 -0.7285 0.0000
vn 0.2467 -0.2840 -0.9265
vn -0.2705 0.3027 -0.9138
vn -0.2705 0.3027 0.9138
vn -0.7692 0.6389 0.0000
vn -0.2523 0.2891 0.9234
vn -0.6800 0.7332 0.0000
vn -0.2523 0.2891 -0.9234
vn 0.2501 -0.2866 -0.9248
vn 0.7031 -0.7111 0.0000
vn -0.5997 0.7040 0.3804
vn -0.5923 0.7060 0.3882
vn 0.7204 -0.6936 0.0000
vn 0.2566 -0.2915 -0.9215
vn -0.2553 0.3020 -0.9185
vn -0.5516 0.8341 0.0000
vn -0.2553 0.3020 0.9185
vn -0.2705 0.3233 0.9068
vn -0.5787 0.8155 0.0000
vn -0.2705 0.3233 -0.9068
vn 0.2735 -0.3047 -0.9123
vn 0.7403 -0.6722 0.0000
vn -0.5720 0.7111 0.4088
vn -0.5108 0.6250 0.5902
vn 0.7530 -0.6580 0.0000
vn 0.3226 -0.3215 -0.8902
vn -0.3174 0.3421 -0.8844
vn 0.0158 -0.0091 -0.9998
vn -0.6566 0.7542 0.0000
vn -0.3174 0.3421 0.8844
vn -0.8281 0.5605 -0.0078
vn -0.5396 0.5163 0.6650
vn -0.5584 0.8295 0.0000
vn -0.5396 0.5163 -0.6650
vn 0.2241 0.1320 -0.9656
vn 0.7309 -0.3008 -0.6126
vn 0.9041 -0.4274 0.0000
vn -0.3808 0.4858 0.7867
vn -0.6872 0.7261 -0.0229
vn 0.1302 0.9818 -0.1378
s 1
f 1//1 9//2 8//3
f 7//4 9//2 8//3
f 7//4 11//5 10//6
f 5//7 11//5 6//8
f 5//7 13//9 12//10
f 4//11 14//12 13//9
f 2//13 14//12 3//1
f 1//1 15//14 2//13
f 16//1 18//15 15//14
f 14//12 18//15 19//16
f 14//12 20//17 13//9
f 13//9 21//18 12//10
f 11//5 21//18 22//19
f 10//6 22//19 23//20
f 10//6 24//21 9//2
f 16//1 24//21 9//2
f 17//1 25//22 24//21
f 23//20 25//22 24//21
f 23//20 27//23 26//24
f 21//18 27//23 22//19
f 21//18 29//25 28//18
f 19//16 29//25 20//17
f 19//16 31//26 30//27
f 17//1 31//26 18//15
f 31//26 33//1 34//28
f 30//27 34//28 35//29
f 30//27 36//30 29//25
f 28//18 36//30 37//18
f 27//23 37//18 38//31
f 27//23 39//32 26//24
f 25//22 39//32 40//33
f 25//22 33//1 40//33
f 40//33 48//1 41//34
f 40//33 42//35 41//34
f 38//31 42//35 39//32
f 37//18 43//36 38//31
f 37//18 45//37 44//18
f 35//29 45//37 36//30
f 35//29 47//38 46//39
f 34//28 48//1 47//38
f 48//1 50//40 47//38
f 46//39 50//40 51//41
f 46//39 52//42 45//37
f 44//18 52//42 53//18
f 44//18 54//43 43//36
f 43//36 55//44 42//35
f 41//34 55//44 56//45
f 48//1 56//45 41//34
f 49//1 57//46 56//45
f 56//45 58//47 57//46
f 54//43 58//47 55//44
f 53//18 59//48 54//43
f 53//18 61//49 60//18
f 52//42 62//50 61//49
f 50//40 62//50 51//41
f 49//1 63//51 50//40
f 64//1 66//52 63//51
f 63//51 67//53 62//50
f 61//49 67//53 68//54
f 60//18 68//54 69//18
f 60//18 70//55 59//48
f 59//48 71//56 58//47
f 57//46 71//56 72//57
f 64//1 72//57 57//46
f 65//1 73//58 72//57
f 72//57 74//59 73//58
f 70//55 74//59 71//56
f 69//18 75//60 70//55
f 69//18 77//61 76//62
f 68//54 78//63 77//61
f 66//52 78//63 67//53
f 65//1 79//64 66//52
f 79//64 81//65 82//66
f 78//63 82//66 83//67
f 78//63 84//68 77//61
f 77//61 85//69 76//62
f 76//62 86//70 75//60
f 75//60 87//71 74//59
f 73//58 87//71 88//72
f 80//73 88//72 73//58
f 88//72 81//65 89//74
f 88//72 87//71 89//74
f 87//71 86//70 89//74
f 86//70 85//69 89//74
f 85//69 84//68 89//74
f 84//68 83//67 89//74
f 83//67 82//66 89//74
f 82//66 81//65 89//74
f 1//1 16//1 9//2
f 7//4 10//6 9//2
f 7//4 6//8 11//5
f 5//7 12//10 11//5
f 5//7 4//11 13//9
f 4//11 3//1 14//12
f 2//13 15//14 14//12
f 1//1 16//1 15//14
f 16//1 17//1 18//15
f 14//12 15//14 18//15
f 14//12 19//16 20//17
f 13//9 20//17 21//18
f 11//5 12//10 21//18
f 10//6 11//5 22//19
f 10//6 23//20 24//21
f 16//1 17//1 24//21
f 17//1 32//1 25//22
f 23//20 26//24 25//22
f 23//20 22//19 27//23
f 21//18 28//18 27//23
f 21//18 20//17 29//25
f 19//16 30//27 29//25
f 19//16 18//15 31//26
f 17//1 32//1 31//26
f 31//26 32//1 33//1
f 30//27 31//26 34//28
f 30//27 35//29 36//30
f 28//18 29//25 36//30
f 27//23 28//18 37//18
f 27//23 38//31 39//32
f 25//22 26//24 39//32
f 25//22 32//1 33//1
f 40//33 33//1 48//1
f 40//33 39//32 42//35
f 38//31 43//36 42//35
f 37//18 44//18 43//36
f 37//18 36//30 45//37
f 35//29 46//39 45//37
f 35//29 34//28 47//38
f 34//28 33//1 48//1
f 48//1 49//1 50//40
f 46//39 47//38 50//40
f 46//39 51//41 52//42
f 44//18 45//37 52//42
f 44//18 53//18 54//43
f 43//36 54//43 55//44
f 41//34 42//35 55//44
f 48//1 49//1 56//45
f 49//1 64//1 57//46
f 56//45 55//44 58//47
f 54//43 59//48 58//47
f 53//18 60//18 59//48
f 53//18 52//42 61//49
f 52//42 51//41 62//50
f 50//40 63//51 62//50
f 49//1 64//1 63//51
f 64//1 65//1 66//52
f 63//51 66//52 67//53
f 61//49 62//50 67//53
f 60//18 61//49 68//54
f 60//18 69//18 70//55
f 59//48 70//55 71//56
f 57//46 58//47 71//56
f 64//1 65//1 72//57
f 65//1 80//73 73//58
f 72//57 71//56 74//59
f 70//55 75//60 74//59
f 69//18 76//62 75//60
f 69//18 68//54 77//61
f 68//54 67//53 78//63
f 66//52 79//64 78//63
f 65//1 80//73 79//64
f 79//64 80//73 81//65
f 78//63 79//64 82//66
f 78//63 83//67 84//68
f 77//61 84//68 85//69
f 76//62 85//69 86//70
f 75//60 86//70 87//71
f 73//58 74//59 87//71
f 80//73 81//65 88//72
o Circle
v -0.705068 -0.565330 -0.005650
v -0.718850 -0.549384 0.023303
v -0.753748 -0.509007 0.038709
v -0.793432 -0.463093 0.033359
v -0.819334 -0.433125 0.009756
v -0.819334 -0.433125 -0.021056
v -0.793432 -0.463093 -0.044659
v -0.753748 -0.509007 -0.050010
v -0.718850 -0.549384 -0.034604
v -0.628205 -0.471038 -0.034604
v -0.663103 -0.430662 -0.050010
v -0.702787 -0.384748 -0.044659
v -0.728689 -0.354779 -0.021056
v -0.728689 -0.354779 0.009756
v -0.702787 -0.384748 0.033359
v -0.663103 -0.430662 0.038709
v -0.628205 -0.471038 0.023303
v -0.614423 -0.486984 -0.005650
v -0.532248 -0.398839 -0.005650
v -0.544048 -0.385186 0.019140
v -0.573929 -0.350615 0.032331
v -0.607907 -0.311302 0.027750
v -0.630085 -0.285643 0.007541
v -0.630085 -0.285643 -0.018841
v -0.607907 -0.311302 -0.039050
v -0.573929 -0.350615 -0.043632
v -0.544049 -0.385186 -0.030441
v -0.354395 -0.197586 -0.022924
v -0.375215 -0.173497 -0.032115
v -0.398891 -0.146104 -0.028923
v -0.414344 -0.128225 -0.014841
v -0.414344 -0.128225 0.003541
v -0.398891 -0.146104 0.017623
v -0.375215 -0.173497 0.020815
v -0.354395 -0.197586 0.011624
v -0.346173 -0.207099 -0.005650
v -0.814008 -0.622508 -0.031709
v -0.845416 -0.586169 -0.045574
v -0.881132 -0.544846 -0.040758
v -0.904444 -0.517875 -0.019516
v -0.904444 -0.517875 0.008215
v -0.881132 -0.544846 0.029458
v -0.845416 -0.586169 0.034273
v -0.814008 -0.622508 0.020408
v -0.801604 -0.636859 -0.005650
v -0.907836 -0.697170 -0.005650
v -0.916593 -0.687038 0.012747
v -0.938768 -0.661383 0.022536
v -0.963983 -0.632209 0.019136
v -0.980441 -0.613167 0.004139
v -0.980441 -0.613167 -0.015439
v -0.963983 -0.632209 -0.030437
v -0.938768 -0.661383 -0.033836
v -0.916594 -0.687038 -0.024047
vn -0.5322 0.6434 -0.5502
vn 0.0000 0.0000 1.0000
vn -0.5703 0.6189 -0.5401
vn 0.0490 -0.0858 -0.9951
vn 0.0841 -0.0556 -0.9949
vn -0.2183 0.2201 -0.9507
vn -0.1795 0.2544 -0.9503
vn -0.5947 0.6368 -0.4906
vn -0.5332 0.6903 -0.4891
vn -0.5947 0.6368 0.4906
vn -0.5332 0.6903 0.4891
vn -0.2183 0.2201 0.9507
vn -0.1795 0.2544 0.9503
vn 0.0490 -0.0858 0.9951
vn 0.0841 -0.0556 0.9949
vn 0.3570 -0.4534 0.8167
vn 0.4062 -0.4121 0.8155
vn 0.4257 -0.3875 0.8177
vn 0.1004 -0.0403 0.9941
vn -0.1586 0.2681 0.9502
vn -0.4991 0.7122 0.4935
vn -0.4991 0.7122 -0.4935
vn -0.1586 0.2681 -0.9502
vn 0.1004 -0.0403 -0.9941
vn -0.5629 0.5868 -0.5819
vn -0.5340 0.5650 -0.6289
vn 0.0958 -0.0428 -0.9945
vn -0.1607 0.2617 -0.9517
vn -0.5043 0.7038 -0.5003
vn -0.5043 0.7038 0.5003
vn -0.1607 0.2617 0.9517
vn 0.0958 -0.0428 0.9945
vn 0.4166 -0.3882 0.8220
vn -0.4976 0.6800 -0.5384
vn 0.0112 -0.1185 -0.9929
vn -0.2606 0.1836 -0.9478
vn -0.6571 0.5758 -0.4865
vn -0.6571 0.5758 0.4865
vn -0.2606 0.1836 0.9478
vn 0.0112 -0.1185 0.9929
vn 0.3039 -0.4976 0.8124
vn 0.2582 -0.5080 0.8217
vn -0.0150 -0.1359 0.9906
vn -0.2779 0.1515 0.9485
vn -0.6855 0.5251 0.5043
vn -0.6855 0.5251 -0.5043
vn -0.2779 0.1515 -0.9485
vn -0.0150 -0.1359 -0.9906
vn -0.4196 0.5846 -0.6943
s 1
f 98//75 90//76 107//76 99//77
f 98//75 97//78 100//79 99//77
f 97//78 96//80 101//81 100//79
f 96//80 95//82 102//83 101//81
f 95//82 94//84 103//85 102//83
f 94//84 93//86 104//87 103//85
f 93//86 92//88 105//89 104//87
f 92//88 91//90 106//91 105//89
f 91//90 90//76 107//76 106//91
f 106//91 107//76 108//76 109//92
f 105//89 106//91 109//92 110//93
f 104//87 105//89 110//93 111//94
f 103//85 104//87 111//94 112//95
f 102//83 103//85 112//95 113//96
f 101//81 102//83 113//96 114//97
f 100//79 101//81 114//97 115//98
f 99//77 100//79 115//98 116//99
f 99//77 107//76 108//76 116//99
f 116//99 108//76 125//76 117//100
f 116//99 115//98 118//101 117//100
f 115//98 114//97 119//102 118//101
f 114//97 113//96 120//103 119//102
f 113//96 112//95 121//104 120//103
f 112//95 111//94 122//105 121//104
f 111//94 110//93 123//106 122//105
f 110//93 109//92 124//107 123//106
f 109//92 108//76 125//76 124//107
f 90//76 98//75 126//108 134//76
f 97//78 98//75 126//108 127//109
f 96//80 97//78 127//109 128//110
f 95//82 96//80 128//110 129//111
f 94//84 95//82 129//111 130//112
f 93//86 94//84 130//112 131//113
f 92//88 93//86 131//113 132//114
f 91//90 92//88 132//114 133//115
f 90//76 91//90 133//115 134//76
f 134//76 133//115 136//116 135//76
f 133//115 132//114 137//117 136//116
f 132//114 131//113 138//118 137//117
f 131//113 130//112 139//119 138//118
f 130//112 129//111 140//120 139//119
f 129//111 128//110 141//121 140//120
f 128//110 127//109 142//122 141//121
f 127//109 126//108 143//123 142//122
f 134//76 126//108 143//123 135//76
o Cube.001
v -0.359122 -0.150300 -0.046484
v -0.412069 -0.084927 -0.025553
v -0.412069 -0.084927 0.017164
v -0.359122 -0.150300 0.038096
v -0.418665 -0.201764 -0.046484
v -0.475683 -0.139909 -0.025553
v -0.475683 -0.139909 0.017164
v -0.418665 -0.201764 0.038096
v -0.365718 -0.267137 0.017164
v -0.365719 -0.267137 -0.025553
v -0.302105 -0.212155 0.017164
v -0.302105 -0.212155 -0.025553
v -0.207089 -0.352304 -0.025553
v -0.207089 -0.352304 0.017164
v -0.240805 -0.381444 -0.025553
v -0.240805 -0.381444 0.017164
v -0.213314 -0.413251 0.017164
v -0.213314 -0.413251 -0.025553
v -0.179598 -0.384111 0.017164
v -0.179598 -0.384111 -0.025553
v -0.566883 -0.704952 0.017164
v -0.566883 -0.704952 -0.025553
v -0.580628 -0.689049 -0.025553
v -0.580628 -0.689049 0.017164
v -0.467051 -0.021313 0.006485
v -0.530665 -0.076295 0.006485
v -0.467051 -0.021313 -0.014874
v -0.530665 -0.076295 -0.014874
vn 0.4910 0.4244 -0.7607
vn 0.4740 0.5603 -0.6792
vn 0.4740 0.5603 0.6792
vn 0.4910 0.4244 0.7607
vn -0.4910 -0.4244 -0.7607
vn -0.4910 -0.4244 0.7607
vn -0.6230 -0.3879 0.6792
vn -0.6230 -0.3879 -0.6792
vn -0.4941 -0.5728 0.6540
vn 0.6384 0.4060 0.6540
vn 0.6384 0.4060 -0.6540
vn -0.4941 -0.5728 -0.6540
vn 0.5502 0.4220 0.7205
vn 0.5502 0.4220 -0.7205
vn -0.4027 0.0011 -0.9153
vn -0.4027 0.0011 0.9153
vn 0.4579 -0.5422 0.7045
vn 0.8143 -0.0593 0.5773
vn 0.8143 -0.0593 -0.5773
vn 0.4579 -0.5422 -0.7045
vn -0.0685 -0.8127 0.5785
vn -0.0685 -0.8127 -0.5785
vn -0.8141 0.0499 -0.5785
vn -0.8141 0.0499 0.5785
vn 0.0439 0.8428 0.5365
vn -0.8402 0.0786 0.5365
vn -0.8402 0.0786 -0.5365
vn 0.0439 0.8428 -0.5365
s 1
f 144//124 145//125 146//126 147//127
f 148//128 151//129 150//130 149//131
f 144//124 148//128 149//131 145//125
f 146//126 150//130 151//129 147//127
f 147//127 151//129 152//132 154//133
f 148//128 144//124 155//134 153//135
f 151//129 148//128 153//135 152//132
f 144//124 147//127 154//133 155//134
f 155//134 154//133 157//136 156//137
f 152//132 153//135 158//138 159//139
f 153//135 155//134 156//137 158//138
f 154//133 152//132 159//139 157//136
f 157//136 159//139 160//140 162//141
f 158//138 156//137 163//142 161//143
f 156//137 157//136 162//141 163//142
f 161//143 163//142 162//141 160//140
f 161//143 160//140 164//144 165//145
f 158//138 161//143 165//145 166//146
f 160//140 159//139 167//147 164//144
f 159//139 158//138 166//146 167//147
f 167//147 166//146 165//145 164//144
f 150//130 146//126 168//148 169//149
f 145//125 149//131 171//150 170//151
f 149//131 150//130 169//149 171//150
f 146//126 145//125 170//151 168//148
f 170//151 171//150 169//149 168//148
o Cube.002
v -1.000901 -0.704996 0.038096
v -1.057919 -0.643142 0.017164
v -1.057919 -0.643142 -0.025553
v -1.000901 -0.704996 -0.046484
v -0.941358 -0.653533 0.038096
v -0.994305 -0.588159 0.017164
v -0.994305 -0.588160 -0.025553
v -0.941358 -0.653533 -0.046484
v -0.884340 -0.715387 -0.025553
v -0.884340 -0.715387 0.017164
v -0.947954 -0.770370 -0.025553
v -0.947954 -0.770370 0.017164
v -0.823041 -0.884677 0.017164
v -0.823041 -0.884677 -0.025553
v -0.789325 -0.855536 0.017164
v -0.789325 -0.855536 -0.025553
v -0.761834 -0.887343 -0.025553
v -0.761834 -0.887343 0.017164
v -0.795550 -0.916484 -0.025553
v -0.795550 -0.916484 0.017164
v -0.609672 -0.741936 -0.025553
v -0.609672 -0.741936 0.017164
v -0.623418 -0.726032 0.017164
v -0.623418 -0.726032 -0.025553
v -1.112901 -0.579528 -0.014874
v -1.049287 -0.524546 -0.014874
v -1.112901 -0.579528 0.006485
v -1.049287 -0.524545 0.006485
vn -0.4910 -0.4244 0.7607
vn -0.6230 -0.3879 0.6792
vn -0.6230 -0.3879 -0.6792
vn -0.4910 -0.4244 -0.7607
vn 0.4910 0.4244 0.7607
vn 0.4910 0.4244 -0.7607
vn 0.4740 0.5603 -0.6792
vn 0.4740 0.5603 0.6792
vn 0.6384 0.4060 -0.6540
vn -0.4941 -0.5728 -0.6540
vn -0.4941 -0.5728 0.6540
vn 0.6384 0.4060 0.6540
vn -0.4972 -0.4833 -0.7205
vn -0.4972 -0.4833 0.7205
vn 0.0637 0.4046 0.9123
vn 0.0637 0.4046 -0.9123
vn 0.4793 -0.5273 -0.7015
vn -0.0593 -0.8143 -0.5773
vn -0.0593 -0.8143 0.5773
vn 0.4793 -0.5273 0.7015
vn 0.8137 -0.0388 -0.5800
vn 0.8137 -0.0388 0.5800
vn 0.0794 0.8107 0.5800
vn 0.0794 0.8107 -0.5800
vn -0.8402 0.0786 -0.5365
vn 0.0439 0.8428 -0.5365
vn 0.0439 0.8428 0.5365
vn -0.8402 0.0786 0.5365
s 1
f 172//152 173//153 174//154 175//155
f 176//156 179//157 178//158 177//159
f 172//152 176//156 177//159 173//153
f 174//154 178//158 179//157 175//155
f 175//155 179//157 180//160 182//161
f 176//156 172//152 183//162 181//163
f 179//157 176//156 181//163 180//160
f 172//152 175//155 182//161 183//162
f 183//162 182//161 185//164 184//165
f 180//160 181//163 186//166 187//167
f 181//163 183//162 184//165 186//166
f 182//161 180//160 187//167 185//164
f 185//164 187//167 188//168 190//169
f 186//166 184//165 191//170 189//171
f 184//165 185//164 190//169 191//170
f 189//171 191//170 190//169 188//168
f 189//171 188//168 192//172 193//173
f 186//166 189//171 193//173 194//174
f 188//168 187//167 195//175 192//172
f 187//167 186//166 194//174 195//175
f 195//175 194//174 193//173 192//172
f 178//158 174//154 196//176 197//177
f 173//153 177//159 199//178 198//179
f 177//159 178//158 197//177 199//178
f 174//154 173//153 198//179 196//176
f 198//179 199//178 197//177 196//176
